<svg width="46" height="46" viewBox="0 0 46 46" fill="none" xmlns="http://www.w3.org/2000/svg">
<path d="M11.5 40.25C10.4458 40.25 9.54368 39.875 8.79363 39.1249C8.04357 38.3749 7.6679 37.4721 7.66663 36.4167V19.1667C7.66663 18.5597 7.80271 17.9847 8.07488 17.4417C8.34704 16.8986 8.72207 16.4514 9.19996 16.1L20.7 7.47501C21.3708 6.9639 22.1375 6.70834 23 6.70834C23.8625 6.70834 24.6291 6.9639 25.3 7.47501L36.8 16.1C37.2791 16.4514 37.6548 16.8986 37.927 17.4417C38.1991 17.9847 38.3346 18.5597 38.3333 19.1667V36.4167C38.3333 37.4708 37.9576 38.3736 37.2063 39.1249C36.455 39.8763 35.5528 40.2513 34.5 40.25H11.5ZM20.125 34.5C20.3805 34.5 20.6041 34.4042 20.7958 34.2125C20.9875 34.0208 21.0833 33.7972 21.0833 33.5417V26.8333C21.8819 26.8333 22.561 26.5541 23.1207 25.9958C23.6804 25.4374 23.9596 24.7582 23.9583 23.9583V19.1667C23.9583 18.9111 23.8625 18.6875 23.6708 18.4958C23.4791 18.3042 23.2555 18.2083 23 18.2083C22.7444 18.2083 22.5208 18.3042 22.3291 18.4958C22.1375 18.6875 22.0416 18.9111 22.0416 19.1667V23.9583H21.0833V19.1667C21.0833 18.9111 20.9875 18.6875 20.7958 18.4958C20.6041 18.3042 20.3805 18.2083 20.125 18.2083C19.8694 18.2083 19.6458 18.3042 19.4541 18.4958C19.2625 18.6875 19.1666 18.9111 19.1666 19.1667V23.9583H18.2083V19.1667C18.2083 18.9111 18.1125 18.6875 17.9208 18.4958C17.7291 18.3042 17.5055 18.2083 17.25 18.2083C16.9944 18.2083 16.7708 18.3042 16.5791 18.4958C16.3875 18.6875 16.2916 18.9111 16.2916 19.1667V23.9583C16.2916 24.757 16.5715 25.4361 17.1311 25.9958C17.6908 26.5554 18.3693 26.8346 19.1666 26.8333V33.5417C19.1666 33.7972 19.2625 34.0208 19.4541 34.2125C19.6458 34.4042 19.8694 34.5 20.125 34.5ZM27.7916 34.5C28.0472 34.5 28.2708 34.4042 28.4625 34.2125C28.6541 34.0208 28.75 33.7972 28.75 33.5417V19.4542C28.75 19.1028 28.6305 18.8076 28.3915 18.5687C28.1526 18.3297 27.8568 18.2096 27.5041 18.2083C26.6416 18.2083 25.9951 18.6076 25.5645 19.4063C25.1338 20.2049 24.9179 21.0833 24.9166 22.0417V25.875C24.9166 26.3861 25.1485 26.7458 25.6124 26.9541C26.0762 27.1624 26.4832 27.4416 26.8333 27.7917V33.5417C26.8333 33.7972 26.9291 34.0208 27.1208 34.2125C27.3125 34.4042 27.5361 34.5 27.7916 34.5Z" fill="#032D46"/>
</svg>
